<svg xmlns="http://www.w3.org/2000/svg" width="900" height="520" viewBox="0 0 900 520">
<rect width="100%" height="100%" fill="white"/>
<text x="450.0" y="30" text-anchor="middle" font-family="sans-serif" font-size="20">R004 endpoint exactness transitions</text>
<line x1="80" y1="55" x2="80" y2="405" stroke="#111"/>
<line x1="80" y1="405" x2="875" y2="405" stroke="#111"/>
<text x="18" y="230.0" transform="rotate(-90 18 230.0)" text-anchor="middle" font-family="sans-serif" font-size="13">training seeds</text>
<rect x="89.44" y="355.00" width="30.81" height="50.00" fill="#2563eb"/>
<text x="104.84" y="350.00" text-anchor="middle" font-family="sans-serif" font-size="11">2</text>
<text x="104.84" y="423" transform="rotate(35 104.84 423)" text-anchor="start" font-family="sans-serif" font-size="10">categorical_reference_decay:gained_at_endpoint</text>
<rect x="139.13" y="405.00" width="30.81" height="0.00" fill="#2563eb"/>
<text x="154.53" y="400.00" text-anchor="middle" font-family="sans-serif" font-size="11">0</text>
<text x="154.53" y="423" transform="rotate(35 154.53 423)" text-anchor="start" font-family="sans-serif" font-size="10">categorical_reference_decay:lost_at_endpoint</text>
<rect x="188.82" y="380.00" width="30.81" height="25.00" fill="#2563eb"/>
<text x="204.22" y="375.00" text-anchor="middle" font-family="sans-serif" font-size="11">1</text>
<text x="204.22" y="423" transform="rotate(35 204.22 423)" text-anchor="start" font-family="sans-serif" font-size="10">categorical_reference_decay:exact_at_both_endpoints</text>
<rect x="238.50" y="80.00" width="30.81" height="325.00" fill="#2563eb"/>
<text x="253.91" y="75.00" text-anchor="middle" font-family="sans-serif" font-size="11">13</text>
<text x="253.91" y="423" transform="rotate(35 253.91 423)" text-anchor="start" font-family="sans-serif" font-size="10">categorical_reference_decay:inexact_at_both_endpoints</text>
<rect x="288.19" y="380.00" width="30.81" height="25.00" fill="#2563eb"/>
<text x="303.59" y="375.00" text-anchor="middle" font-family="sans-serif" font-size="11">1</text>
<text x="303.59" y="423" transform="rotate(35 303.59 423)" text-anchor="start" font-family="sans-serif" font-size="10">truth_reference_decay:gained_at_endpoint</text>
<rect x="337.88" y="405.00" width="30.81" height="0.00" fill="#2563eb"/>
<text x="353.28" y="400.00" text-anchor="middle" font-family="sans-serif" font-size="11">0</text>
<text x="353.28" y="423" transform="rotate(35 353.28 423)" text-anchor="start" font-family="sans-serif" font-size="10">truth_reference_decay:lost_at_endpoint</text>
<rect x="387.57" y="380.00" width="30.81" height="25.00" fill="#2563eb"/>
<text x="402.97" y="375.00" text-anchor="middle" font-family="sans-serif" font-size="11">1</text>
<text x="402.97" y="423" transform="rotate(35 402.97 423)" text-anchor="start" font-family="sans-serif" font-size="10">truth_reference_decay:exact_at_both_endpoints</text>
<rect x="437.25" y="55.00" width="30.81" height="350.00" fill="#2563eb"/>
<text x="452.66" y="50.00" text-anchor="middle" font-family="sans-serif" font-size="11">14</text>
<text x="452.66" y="423" transform="rotate(35 452.66 423)" text-anchor="start" font-family="sans-serif" font-size="10">truth_reference_decay:inexact_at_both_endpoints</text>
<rect x="486.94" y="255.00" width="30.81" height="150.00" fill="#2563eb"/>
<text x="502.34" y="250.00" text-anchor="middle" font-family="sans-serif" font-size="11">6</text>
<text x="502.34" y="423" transform="rotate(35 502.34 423)" text-anchor="start" font-family="sans-serif" font-size="10">categorical_no_decay:gained_at_endpoint</text>
<rect x="536.63" y="405.00" width="30.81" height="0.00" fill="#2563eb"/>
<text x="552.03" y="400.00" text-anchor="middle" font-family="sans-serif" font-size="11">0</text>
<text x="552.03" y="423" transform="rotate(35 552.03 423)" text-anchor="start" font-family="sans-serif" font-size="10">categorical_no_decay:lost_at_endpoint</text>
<rect x="586.32" y="355.00" width="30.81" height="50.00" fill="#2563eb"/>
<text x="601.72" y="350.00" text-anchor="middle" font-family="sans-serif" font-size="11">2</text>
<text x="601.72" y="423" transform="rotate(35 601.72 423)" text-anchor="start" font-family="sans-serif" font-size="10">categorical_no_decay:exact_at_both_endpoints</text>
<rect x="636.00" y="205.00" width="30.81" height="200.00" fill="#2563eb"/>
<text x="651.41" y="200.00" text-anchor="middle" font-family="sans-serif" font-size="11">8</text>
<text x="651.41" y="423" transform="rotate(35 651.41 423)" text-anchor="start" font-family="sans-serif" font-size="10">categorical_no_decay:inexact_at_both_endpoints</text>
<rect x="685.69" y="330.00" width="30.81" height="75.00" fill="#2563eb"/>
<text x="701.09" y="325.00" text-anchor="middle" font-family="sans-serif" font-size="11">3</text>
<text x="701.09" y="423" transform="rotate(35 701.09 423)" text-anchor="start" font-family="sans-serif" font-size="10">truth_no_decay:gained_at_endpoint</text>
<rect x="735.38" y="405.00" width="30.81" height="0.00" fill="#2563eb"/>
<text x="750.78" y="400.00" text-anchor="middle" font-family="sans-serif" font-size="11">0</text>
<text x="750.78" y="423" transform="rotate(35 750.78 423)" text-anchor="start" font-family="sans-serif" font-size="10">truth_no_decay:lost_at_endpoint</text>
<rect x="785.07" y="405.00" width="30.81" height="0.00" fill="#2563eb"/>
<text x="800.47" y="400.00" text-anchor="middle" font-family="sans-serif" font-size="11">0</text>
<text x="800.47" y="423" transform="rotate(35 800.47 423)" text-anchor="start" font-family="sans-serif" font-size="10">truth_no_decay:exact_at_both_endpoints</text>
<rect x="834.75" y="80.00" width="30.81" height="325.00" fill="#2563eb"/>
<text x="850.16" y="75.00" text-anchor="middle" font-family="sans-serif" font-size="11">13</text>
<text x="850.16" y="423" transform="rotate(35 850.16 423)" text-anchor="start" font-family="sans-serif" font-size="10">truth_no_decay:inexact_at_both_endpoints</text>
</svg>
