<svg xmlns="http://www.w3.org/2000/svg" width="900" height="520" viewBox="0 0 900 520">
<rect width="100%" height="100%" fill="white"/>
<text x="450.0" y="30" text-anchor="middle" font-family="sans-serif" font-size="20">R004 soft-loss trajectories</text>
<line x1="80" y1="55" x2="80" y2="455" stroke="#111"/>
<line x1="80" y1="455" x2="875" y2="455" stroke="#111"/>
<text x="18" y="255.0" transform="rotate(-90 18 255.0)" text-anchor="middle" font-family="sans-serif" font-size="13">mean terminal summed squared error over 16 seeds</text>
<text x="477.5" y="505" text-anchor="middle" font-family="sans-serif" font-size="13">global optimizer update</text>
<polyline points="80.00,55.00 99.88,229.22 119.75,232.55 139.62,233.13 159.50,236.23 179.38,262.83 199.25,288.44 219.12,313.87 239.00,344.43 258.88,365.28 278.75,385.41 298.62,398.43 318.50,423.87 338.38,434.13 358.25,437.99 378.12,440.91 398.00,445.27 417.88,447.34 437.75,448.66 457.62,449.54 477.50,450.00 497.38,450.36 517.25,450.60 537.12,451.15 557.00,452.11 576.88,452.72 596.75,453.28 616.62,453.69 636.50,453.96 656.38,454.14 676.25,454.17 696.12,454.50 716.00,454.59 735.88,454.67 755.75,454.54 775.62,454.77 795.50,454.79 815.38,454.85 835.25,454.89 855.12,454.91 875.00,454.91" fill="none" stroke="#2563eb" stroke-width="2"/>
<line x1="95" y1="55" x2="115" y2="55" stroke="#2563eb" stroke-width="3"/>
<text x="122" y="59" font-family="sans-serif" font-size="11">categorical_reference_decay</text>
<polyline points="80.00,55.00 99.88,199.41 119.75,226.88 139.62,232.65 159.50,234.29 179.38,243.65 199.25,266.85 219.12,300.17 239.00,345.30 258.88,376.19 278.75,398.56 298.62,418.83 318.50,429.00 338.38,436.40 358.25,440.91 378.12,443.15 398.00,444.68 417.88,446.46 437.75,448.09 457.62,449.38 477.50,450.54 497.38,451.49 517.25,452.07 537.12,452.73 557.00,453.34 576.88,453.62 596.75,453.78 616.62,453.91 636.50,453.98 656.38,454.01 676.25,454.04 696.12,454.01 716.00,454.05 735.88,454.08 755.75,454.11 775.62,454.98 795.50,454.97 815.38,454.98 835.25,454.97 855.12,455.00 875.00,454.98" fill="none" stroke="#dc2626" stroke-width="2"/>
<line x1="95" y1="73" x2="115" y2="73" stroke="#dc2626" stroke-width="3"/>
<text x="122" y="77" font-family="sans-serif" font-size="11">truth_reference_decay</text>
<polyline points="80.00,55.00 99.88,228.58 119.75,232.56 139.62,233.08 159.50,234.43 179.38,248.53 199.25,278.62 219.12,307.03 239.00,337.92 258.88,353.21 278.75,366.74 298.62,379.08 318.50,402.15 338.38,410.88 358.25,417.89 378.12,421.91 398.00,424.74 417.88,431.72 437.75,436.86 457.62,439.95 477.50,442.49 497.38,444.24 517.25,445.88 537.12,447.30 557.00,447.84 576.88,448.40 596.75,449.45 616.62,449.90 636.50,450.32 656.38,450.51 676.25,450.59 696.12,450.71 716.00,450.82 735.88,450.98 755.75,451.08 775.62,451.30 795.50,451.61 815.38,451.75 835.25,451.92 855.12,451.99 875.00,452.06" fill="none" stroke="#16a34a" stroke-width="2"/>
<line x1="95" y1="91" x2="115" y2="91" stroke="#16a34a" stroke-width="3"/>
<text x="122" y="95" font-family="sans-serif" font-size="11">categorical_no_decay</text>
<polyline points="80.00,55.00 99.88,197.62 119.75,223.61 139.62,232.35 159.50,234.01 179.38,240.06 199.25,259.06 219.12,284.18 239.00,312.73 258.88,350.33 278.75,381.19 298.62,402.82 318.50,418.65 338.38,426.13 358.25,431.59 378.12,434.49 398.00,437.22 417.88,439.82 437.75,442.93 457.62,445.43 477.50,447.18 497.38,448.66 517.25,449.51 537.12,450.22 557.00,450.87 576.88,451.46 596.75,451.97 616.62,452.36 636.50,452.79 656.38,453.15 676.25,453.49 696.12,453.84 716.00,454.06 735.88,454.19 755.75,454.37 775.62,454.53 795.50,454.66 815.38,454.73 835.25,454.81 855.12,454.86 875.00,454.90" fill="none" stroke="#9333ea" stroke-width="2"/>
<line x1="95" y1="109" x2="115" y2="109" stroke="#9333ea" stroke-width="3"/>
<text x="122" y="113" font-family="sans-serif" font-size="11">truth_no_decay</text>
<text x="80.0" y="477" text-anchor="middle" font-family="sans-serif" font-size="11">0</text>
<text x="875.0" y="477" text-anchor="middle" font-family="sans-serif" font-size="11">2000</text>
</svg>
