<svg xmlns="http://www.w3.org/2000/svg" width="900" height="520" viewBox="0 0 900 520">
<rect width="100%" height="100%" fill="white"/>
<text x="450.0" y="30" text-anchor="middle" font-family="sans-serif" font-size="20">R004 runtime and universal evidence</text>
<line x1="80" y1="55" x2="80" y2="405" stroke="#111"/>
<line x1="80" y1="405" x2="875" y2="405" stroke="#111"/>
<text x="18" y="230.0" transform="rotate(-90 18 230.0)" text-anchor="middle" font-family="sans-serif" font-size="13">labeled run, update, and hardening modes</text>
<rect x="117.76" y="289.23" width="123.22" height="115.77" fill="#2563eb"/>
<text x="179.38" y="284.23" text-anchor="middle" font-family="sans-serif" font-size="11">86</text>
<text x="179.38" y="423" transform="rotate(35 179.38 423)" text-anchor="start" font-family="sans-serif" font-size="10">phase-dependent</text>
<rect x="316.51" y="55.00" width="123.22" height="350.00" fill="#2563eb"/>
<text x="378.12" y="50.00" text-anchor="middle" font-family="sans-serif" font-size="11">260</text>
<text x="378.12" y="423" transform="rotate(35 378.12 423)" text-anchor="start" font-family="sans-serif" font-size="10">universal-inconclusive</text>
<rect x="515.26" y="211.15" width="123.22" height="193.85" fill="#2563eb"/>
<text x="576.88" y="206.15" text-anchor="middle" font-family="sans-serif" font-size="11">144</text>
<text x="576.88" y="423" transform="rotate(35 576.88 423)" text-anchor="start" font-family="sans-serif" font-size="10">universally-correct</text>
<rect x="714.01" y="259.62" width="123.22" height="145.38" fill="#2563eb"/>
<text x="775.62" y="254.62" text-anchor="middle" font-family="sans-serif" font-size="11">108</text>
<text x="775.62" y="423" transform="rotate(35 775.62 423)" text-anchor="start" font-family="sans-serif" font-size="10">persistent-failure</text>
</svg>
