<svg xmlns="http://www.w3.org/2000/svg" width="800" height="520" viewBox="0 0 800 520">
<rect width="100%" height="100%" fill="white"/>
<text x="400.0" y="30" text-anchor="middle" font-family="sans-serif" font-size="18">Predicted versus observed factorized-arm output steps</text>
<line x1="90" y1="445" x2="770" y2="445" stroke="#222"/>
<line x1="90" y1="65" x2="90" y2="445" stroke="#222"/>
<line x1="90.00" y1="445.00" x2="770.00" y2="65.00" stroke="#777" stroke-dasharray="5 5"/>
<circle cx="568.08" cy="177.81" r="3" fill="#109618" fill-opacity="0.68"/>
<circle cx="472.84" cy="231.06" r="3" fill="#109618" fill-opacity="0.68"/>
<circle cx="537.70" cy="194.80" r="3" fill="#109618" fill-opacity="0.68"/>
<circle cx="568.08" cy="177.81" r="3" fill="#109618" fill-opacity="0.68"/>
<circle cx="499.11" cy="216.38" r="3" fill="#109618" fill-opacity="0.68"/>
<circle cx="584.15" cy="168.85" r="3" fill="#109618" fill-opacity="0.68"/>
<circle cx="521.60" cy="203.80" r="3" fill="#109618" fill-opacity="0.68"/>
<circle cx="624.30" cy="146.43" r="3" fill="#109618" fill-opacity="0.68"/>
<circle cx="595.26" cy="162.66" r="3" fill="#109618" fill-opacity="0.68"/>
<circle cx="521.60" cy="203.80" r="3" fill="#109618" fill-opacity="0.68"/>
<circle cx="463.91" cy="236.05" r="3" fill="#109618" fill-opacity="0.68"/>
<circle cx="704.53" cy="101.21" r="3" fill="#109618" fill-opacity="0.68"/>
<circle cx="554.88" cy="185.19" r="3" fill="#109618" fill-opacity="0.68"/>
<circle cx="410.84" cy="265.70" r="3" fill="#109618" fill-opacity="0.68"/>
<circle cx="566.45" cy="178.75" r="3" fill="#109618" fill-opacity="0.68"/>
<circle cx="554.88" cy="185.19" r="3" fill="#109618" fill-opacity="0.68"/>
<circle cx="485.14" cy="224.19" r="3" fill="#109618" fill-opacity="0.68"/>
<circle cx="598.53" cy="160.81" r="3" fill="#109618" fill-opacity="0.68"/>
<circle cx="542.38" cy="192.18" r="3" fill="#109618" fill-opacity="0.68"/>
<circle cx="603.94" cy="157.80" r="3" fill="#109618" fill-opacity="0.68"/>
<circle cx="581.51" cy="170.33" r="3" fill="#109618" fill-opacity="0.68"/>
<circle cx="542.38" cy="192.18" r="3" fill="#109618" fill-opacity="0.68"/>
<circle cx="549.31" cy="188.33" r="3" fill="#109618" fill-opacity="0.68"/>
<circle cx="488.51" cy="222.31" r="3" fill="#109618" fill-opacity="0.68"/>
<circle cx="591.41" cy="164.77" r="3" fill="#109618" fill-opacity="0.68"/>
<circle cx="583.71" cy="169.14" r="3" fill="#109618" fill-opacity="0.68"/>
<circle cx="210.90" cy="377.44" r="3" fill="#109618" fill-opacity="0.68"/>
<circle cx="591.41" cy="164.77" r="3" fill="#109618" fill-opacity="0.68"/>
<circle cx="769.56" cy="65.00" r="3" fill="#109618" fill-opacity="0.68"/>
<circle cx="315.55" cy="318.96" r="3" fill="#109618" fill-opacity="0.68"/>
<circle cx="582.93" cy="169.51" r="3" fill="#109618" fill-opacity="0.68"/>
<circle cx="530.46" cy="198.86" r="3" fill="#109618" fill-opacity="0.68"/>
<circle cx="526.30" cy="201.18" r="3" fill="#109618" fill-opacity="0.68"/>
<circle cx="582.93" cy="169.51" r="3" fill="#109618" fill-opacity="0.68"/>
<circle cx="493.56" cy="219.48" r="3" fill="#109618" fill-opacity="0.68"/>
<circle cx="692.60" cy="108.31" r="3" fill="#109618" fill-opacity="0.68"/>
<circle cx="515.06" cy="207.46" r="3" fill="#109618" fill-opacity="0.68"/>
<circle cx="450.84" cy="243.36" r="3" fill="#109618" fill-opacity="0.68"/>
<circle cx="592.54" cy="164.18" r="3" fill="#109618" fill-opacity="0.68"/>
<circle cx="515.06" cy="207.46" r="3" fill="#109618" fill-opacity="0.68"/>
<circle cx="503.80" cy="213.76" r="3" fill="#109618" fill-opacity="0.68"/>
<circle cx="578.13" cy="172.23" r="3" fill="#109618" fill-opacity="0.68"/>
<circle cx="510.26" cy="210.14" r="3" fill="#109618" fill-opacity="0.68"/>
<circle cx="387.21" cy="278.91" r="3" fill="#109618" fill-opacity="0.68"/>
<circle cx="467.54" cy="234.03" r="3" fill="#109618" fill-opacity="0.68"/>
<circle cx="510.26" cy="210.14" r="3" fill="#109618" fill-opacity="0.68"/>
<circle cx="465.37" cy="235.23" r="3" fill="#109618" fill-opacity="0.68"/>
<circle cx="565.97" cy="179.03" r="3" fill="#109618" fill-opacity="0.68"/>
<circle cx="488.64" cy="222.22" r="3" fill="#109618" fill-opacity="0.68"/>
<circle cx="484.90" cy="224.32" r="3" fill="#109618" fill-opacity="0.68"/>
<circle cx="696.13" cy="106.32" r="3" fill="#109618" fill-opacity="0.68"/>
<circle cx="488.64" cy="222.22" r="3" fill="#109618" fill-opacity="0.68"/>
<circle cx="516.93" cy="206.42" r="3" fill="#109618" fill-opacity="0.68"/>
<circle cx="491.78" cy="220.47" r="3" fill="#109618" fill-opacity="0.68"/>
<circle cx="536.83" cy="195.29" r="3" fill="#109618" fill-opacity="0.68"/>
<circle cx="566.42" cy="178.77" r="3" fill="#109618" fill-opacity="0.68"/>
<circle cx="746.05" cy="75.94" r="3" fill="#109618" fill-opacity="0.68"/>
<circle cx="536.83" cy="195.29" r="3" fill="#109618" fill-opacity="0.68"/>
<circle cx="602.57" cy="158.58" r="3" fill="#109618" fill-opacity="0.68"/>
<circle cx="504.23" cy="213.49" r="3" fill="#109618" fill-opacity="0.68"/>
<circle cx="595.39" cy="162.56" r="3" fill="#109618" fill-opacity="0.68"/>
<circle cx="541.63" cy="192.62" r="3" fill="#109618" fill-opacity="0.68"/>
<circle cx="764.83" cy="68.18" r="3" fill="#109618" fill-opacity="0.68"/>
<circle cx="595.39" cy="162.56" r="3" fill="#109618" fill-opacity="0.68"/>
<circle cx="524.62" cy="202.12" r="3" fill="#109618" fill-opacity="0.68"/>
<circle cx="457.23" cy="239.79" r="3" fill="#109618" fill-opacity="0.68"/>
<circle cx="526.80" cy="200.89" r="3" fill="#109618" fill-opacity="0.68"/>
<circle cx="375.98" cy="285.19" r="3" fill="#109618" fill-opacity="0.68"/>
<circle cx="485.53" cy="223.97" r="3" fill="#109618" fill-opacity="0.68"/>
<circle cx="526.80" cy="200.89" r="3" fill="#109618" fill-opacity="0.68"/>
<circle cx="312.98" cy="320.40" r="3" fill="#109618" fill-opacity="0.68"/>
<circle cx="627.84" cy="144.44" r="3" fill="#109618" fill-opacity="0.68"/>
<circle cx="557.59" cy="183.69" r="3" fill="#109618" fill-opacity="0.68"/>
<circle cx="473.16" cy="230.88" r="3" fill="#109618" fill-opacity="0.68"/>
<circle cx="588.09" cy="166.65" r="3" fill="#109618" fill-opacity="0.68"/>
<circle cx="557.59" cy="183.69" r="3" fill="#109618" fill-opacity="0.68"/>
<circle cx="417.10" cy="262.21" r="3" fill="#109618" fill-opacity="0.68"/>
<circle cx="625.36" cy="145.87" r="3" fill="#109618" fill-opacity="0.68"/>
<circle cx="542.86" cy="191.92" r="3" fill="#109618" fill-opacity="0.68"/>
<circle cx="441.11" cy="248.79" r="3" fill="#109618" fill-opacity="0.68"/>
<circle cx="324.25" cy="314.10" r="3" fill="#109618" fill-opacity="0.68"/>
<circle cx="542.86" cy="191.92" r="3" fill="#109618" fill-opacity="0.68"/>
<circle cx="422.54" cy="259.17" r="3" fill="#109618" fill-opacity="0.68"/>
<circle cx="513.62" cy="208.27" r="3" fill="#109618" fill-opacity="0.68"/>
<circle cx="557.37" cy="183.80" r="3" fill="#109618" fill-opacity="0.68"/>
<circle cx="357.82" cy="295.33" r="3" fill="#109618" fill-opacity="0.68"/>
<circle cx="722.87" cy="91.47" r="3" fill="#109618" fill-opacity="0.68"/>
<circle cx="557.37" cy="183.80" r="3" fill="#109618" fill-opacity="0.68"/>
<circle cx="352.02" cy="298.57" r="3" fill="#109618" fill-opacity="0.68"/>
<circle cx="635.74" cy="140.00" r="3" fill="#109618" fill-opacity="0.68"/>
<circle cx="506.55" cy="212.21" r="3" fill="#109618" fill-opacity="0.68"/>
<circle cx="523.95" cy="202.50" r="3" fill="#109618" fill-opacity="0.68"/>
<circle cx="561.04" cy="181.78" r="3" fill="#109618" fill-opacity="0.68"/>
<circle cx="506.55" cy="212.21" r="3" fill="#109618" fill-opacity="0.68"/>
<circle cx="541.31" cy="192.80" r="3" fill="#109618" fill-opacity="0.68"/>
<circle cx="485.10" cy="224.21" r="3" fill="#109618" fill-opacity="0.68"/>
<circle cx="447.18" cy="245.40" r="3" fill="#990099" fill-opacity="0.68"/>
<circle cx="351.94" cy="298.62" r="3" fill="#990099" fill-opacity="0.68"/>
<circle cx="416.80" cy="262.38" r="3" fill="#990099" fill-opacity="0.68"/>
<circle cx="447.18" cy="245.40" r="3" fill="#990099" fill-opacity="0.68"/>
<circle cx="378.21" cy="283.94" r="3" fill="#990099" fill-opacity="0.68"/>
<circle cx="463.25" cy="236.42" r="3" fill="#990099" fill-opacity="0.68"/>
<circle cx="400.70" cy="271.37" r="3" fill="#990099" fill-opacity="0.68"/>
<circle cx="503.40" cy="213.98" r="3" fill="#990099" fill-opacity="0.68"/>
<circle cx="474.36" cy="230.21" r="3" fill="#990099" fill-opacity="0.68"/>
<circle cx="400.70" cy="271.37" r="3" fill="#990099" fill-opacity="0.68"/>
<circle cx="343.01" cy="303.61" r="3" fill="#990099" fill-opacity="0.68"/>
<circle cx="583.62" cy="169.12" r="3" fill="#990099" fill-opacity="0.68"/>
<circle cx="433.97" cy="252.78" r="3" fill="#990099" fill-opacity="0.68"/>
<circle cx="289.94" cy="333.27" r="3" fill="#990099" fill-opacity="0.68"/>
<circle cx="445.55" cy="246.31" r="3" fill="#990099" fill-opacity="0.68"/>
<circle cx="433.97" cy="252.78" r="3" fill="#990099" fill-opacity="0.68"/>
<circle cx="364.24" cy="291.75" r="3" fill="#990099" fill-opacity="0.68"/>
<circle cx="477.63" cy="228.38" r="3" fill="#990099" fill-opacity="0.68"/>
<circle cx="421.47" cy="259.76" r="3" fill="#990099" fill-opacity="0.68"/>
<circle cx="483.03" cy="225.36" r="3" fill="#990099" fill-opacity="0.68"/>
<circle cx="460.60" cy="237.90" r="3" fill="#990099" fill-opacity="0.68"/>
<circle cx="421.47" cy="259.76" r="3" fill="#990099" fill-opacity="0.68"/>
<circle cx="428.40" cy="255.89" r="3" fill="#990099" fill-opacity="0.68"/>
<circle cx="367.61" cy="289.87" r="3" fill="#990099" fill-opacity="0.68"/>
<circle cx="470.50" cy="232.36" r="3" fill="#990099" fill-opacity="0.68"/>
<circle cx="462.81" cy="236.67" r="3" fill="#990099" fill-opacity="0.68"/>
<circle cx="90.00" cy="445.00" r="3" fill="#990099" fill-opacity="0.68"/>
<circle cx="470.50" cy="232.36" r="3" fill="#990099" fill-opacity="0.68"/>
<circle cx="648.66" cy="132.79" r="3" fill="#990099" fill-opacity="0.68"/>
<circle cx="194.64" cy="386.52" r="3" fill="#990099" fill-opacity="0.68"/>
<circle cx="462.03" cy="237.10" r="3" fill="#990099" fill-opacity="0.68"/>
<circle cx="409.56" cy="266.42" r="3" fill="#990099" fill-opacity="0.68"/>
<circle cx="405.40" cy="268.75" r="3" fill="#990099" fill-opacity="0.68"/>
<circle cx="462.03" cy="237.10" r="3" fill="#990099" fill-opacity="0.68"/>
<circle cx="372.65" cy="287.05" r="3" fill="#990099" fill-opacity="0.68"/>
<circle cx="571.70" cy="175.82" r="3" fill="#990099" fill-opacity="0.68"/>
<circle cx="394.16" cy="275.03" r="3" fill="#990099" fill-opacity="0.68"/>
<circle cx="329.93" cy="310.92" r="3" fill="#990099" fill-opacity="0.68"/>
<circle cx="471.64" cy="231.73" r="3" fill="#990099" fill-opacity="0.68"/>
<circle cx="394.16" cy="275.03" r="3" fill="#990099" fill-opacity="0.68"/>
<circle cx="382.90" cy="281.32" r="3" fill="#990099" fill-opacity="0.68"/>
<circle cx="457.23" cy="239.79" r="3" fill="#990099" fill-opacity="0.68"/>
<circle cx="389.35" cy="277.71" r="3" fill="#990099" fill-opacity="0.68"/>
<circle cx="266.30" cy="346.48" r="3" fill="#990099" fill-opacity="0.68"/>
<circle cx="346.63" cy="301.59" r="3" fill="#990099" fill-opacity="0.68"/>
<circle cx="389.35" cy="277.71" r="3" fill="#990099" fill-opacity="0.68"/>
<circle cx="344.47" cy="302.80" r="3" fill="#990099" fill-opacity="0.68"/>
<circle cx="445.07" cy="246.58" r="3" fill="#990099" fill-opacity="0.68"/>
<circle cx="367.74" cy="289.79" r="3" fill="#990099" fill-opacity="0.68"/>
<circle cx="364.00" cy="291.88" r="3" fill="#990099" fill-opacity="0.68"/>
<circle cx="575.22" cy="173.85" r="3" fill="#990099" fill-opacity="0.68"/>
<circle cx="367.74" cy="289.79" r="3" fill="#990099" fill-opacity="0.68"/>
<circle cx="396.03" cy="273.98" r="3" fill="#990099" fill-opacity="0.68"/>
<circle cx="370.88" cy="288.04" r="3" fill="#990099" fill-opacity="0.68"/>
<circle cx="415.92" cy="262.86" r="3" fill="#990099" fill-opacity="0.68"/>
<circle cx="445.51" cy="246.33" r="3" fill="#990099" fill-opacity="0.68"/>
<circle cx="625.15" cy="145.73" r="3" fill="#990099" fill-opacity="0.68"/>
<circle cx="415.92" cy="262.86" r="3" fill="#990099" fill-opacity="0.68"/>
<circle cx="481.66" cy="226.13" r="3" fill="#990099" fill-opacity="0.68"/>
<circle cx="383.33" cy="281.08" r="3" fill="#990099" fill-opacity="0.68"/>
<circle cx="474.49" cy="230.14" r="3" fill="#990099" fill-opacity="0.68"/>
<circle cx="420.73" cy="260.18" r="3" fill="#990099" fill-opacity="0.68"/>
<circle cx="643.93" cy="135.48" r="3" fill="#990099" fill-opacity="0.68"/>
<circle cx="474.49" cy="230.14" r="3" fill="#990099" fill-opacity="0.68"/>
<circle cx="403.72" cy="269.69" r="3" fill="#990099" fill-opacity="0.68"/>
<circle cx="336.32" cy="307.35" r="3" fill="#990099" fill-opacity="0.68"/>
<circle cx="405.90" cy="268.47" r="3" fill="#990099" fill-opacity="0.68"/>
<circle cx="255.08" cy="352.75" r="3" fill="#990099" fill-opacity="0.68"/>
<circle cx="364.62" cy="291.53" r="3" fill="#990099" fill-opacity="0.68"/>
<circle cx="405.90" cy="268.47" r="3" fill="#990099" fill-opacity="0.68"/>
<circle cx="192.07" cy="387.96" r="3" fill="#990099" fill-opacity="0.68"/>
<circle cx="506.94" cy="212.01" r="3" fill="#990099" fill-opacity="0.68"/>
<circle cx="436.69" cy="251.26" r="3" fill="#990099" fill-opacity="0.68"/>
<circle cx="352.25" cy="298.45" r="3" fill="#990099" fill-opacity="0.68"/>
<circle cx="467.19" cy="234.22" r="3" fill="#990099" fill-opacity="0.68"/>
<circle cx="436.69" cy="251.26" r="3" fill="#990099" fill-opacity="0.68"/>
<circle cx="296.20" cy="329.77" r="3" fill="#990099" fill-opacity="0.68"/>
<circle cx="504.46" cy="213.39" r="3" fill="#990099" fill-opacity="0.68"/>
<circle cx="421.96" cy="259.49" r="3" fill="#990099" fill-opacity="0.68"/>
<circle cx="320.20" cy="316.36" r="3" fill="#990099" fill-opacity="0.68"/>
<circle cx="203.35" cy="381.66" r="3" fill="#990099" fill-opacity="0.68"/>
<circle cx="421.96" cy="259.49" r="3" fill="#990099" fill-opacity="0.68"/>
<circle cx="301.64" cy="326.73" r="3" fill="#990099" fill-opacity="0.68"/>
<circle cx="392.71" cy="275.84" r="3" fill="#990099" fill-opacity="0.68"/>
<circle cx="436.47" cy="251.38" r="3" fill="#990099" fill-opacity="0.68"/>
<circle cx="236.92" cy="362.90" r="3" fill="#990099" fill-opacity="0.68"/>
<circle cx="601.96" cy="158.92" r="3" fill="#990099" fill-opacity="0.68"/>
<circle cx="436.47" cy="251.38" r="3" fill="#990099" fill-opacity="0.68"/>
<circle cx="231.12" cy="366.14" r="3" fill="#990099" fill-opacity="0.68"/>
<circle cx="514.83" cy="207.59" r="3" fill="#990099" fill-opacity="0.68"/>
<circle cx="385.65" cy="279.78" r="3" fill="#990099" fill-opacity="0.68"/>
<circle cx="403.05" cy="270.06" r="3" fill="#990099" fill-opacity="0.68"/>
<circle cx="440.13" cy="249.34" r="3" fill="#990099" fill-opacity="0.68"/>
<circle cx="385.65" cy="279.78" r="3" fill="#990099" fill-opacity="0.68"/>
<circle cx="420.41" cy="260.36" r="3" fill="#990099" fill-opacity="0.68"/>
<circle cx="364.20" cy="291.77" r="3" fill="#990099" fill-opacity="0.68"/>
<text x="400.0" y="498" text-anchor="middle" font-family="sans-serif" font-size="14">predicted output delta L2 (log10)</text>
<text x="22" y="260.0" text-anchor="middle" transform="rotate(-90 22 260.0)" font-family="sans-serif" font-size="14">observed output delta L2 (log10)</text>
<circle cx="102" cy="65" r="4" fill="#109618"/>
<text x="112" y="69" font-family="sans-serif" font-size="12">eta=0.001</text>
<circle cx="102" cy="83" r="4" fill="#990099"/>
<text x="112" y="87" font-family="sans-serif" font-size="12">eta=0.0001</text>
</svg>
